<?xml version="1.0" encoding="UTF-8" standalone="no"?>
<svg width="121px" height="32px" viewBox="0 0 121 32" version="1.1" xmlns="http://www.w3.org/2000/svg" xmlns:xlink="http://www.w3.org/1999/xlink">
    <!-- Generator: Sketch 43.1 (39012) - http://www.bohemiancoding.com/sketch -->
    <title>Group 14 Copy 6</title>
    <desc>Created with Sketch.</desc>
    <defs></defs>
    <g id="Page-1" stroke="none" stroke-width="1" fill="none" fill-rule="evenodd">
        <g id="Header-Nieuw-DEV" transform="translate(-102.000000, -1545.000000)">
            <g id="Group-14-Copy-6" transform="translate(102.000000, 1545.000000)">
                <g id="Logo_Collect">
                    <g id="Group-Copy">
                        <g id="Page-1">
                            <path d="M15.7059352,32 C7.03190862,31.9983794 0,24.8379737 0,15.9949355 C0.000397799888,7.16081083 7.03310202,-0.0012154822 15.7067308,0 C24.3815529,0 31.4134615,7.16081083 31.4134615,15.9969613 C31.4126659,24.8383789 24.3815529,32 15.7059352,32 Z" id="Fill-1" fill="#0587C7"></path>
                            <path d="M15.4543649,13.6296296 C15.1632057,13.6296296 14.8792454,13.545939 14.6328799,13.3868089 C13.9445762,12.9408517 13.7546028,12.0288988 14.2077394,11.3526942 L18.2007807,5.40044301 C18.4783419,4.98749061 18.9450766,4.74074074 19.449406,4.74074074 C19.7413651,4.74074074 20.0257254,4.82364555 20.2708911,4.98198981 C20.9591948,5.42912572 21.1495681,6.34225739 20.6956316,7.0172833 L16.7033902,12.9695344 C16.4250291,13.3828798 15.9582944,13.6296296 15.4543649,13.6296296" id="Fill-3" fill="#FFFFFF"></path>
                            <path d="M19.1407835,4.14814815 C18.5319329,4.14814815 17.9686669,4.46596194 17.6337198,4.99814425 L13.6769838,11.2912728 C13.1299696,12.1616256 13.3594778,13.3356671 14.1899087,13.9089783 C14.4864063,14.1137916 14.8296775,14.2222222 15.1812728,14.2222222 C15.7885379,14.2222222 16.3518039,13.9048239 16.6875438,13.373057 L20.6450725,7.07826669 C21.1920867,6.20957565 20.9625786,5.03511867 20.1333368,4.46056118 C19.8356501,4.25574785 19.4931716,4.14814815 19.1407835,4.14814815 M19.1407835,4.82282736 C19.3595892,4.82282736 19.5811696,4.88763645 19.7785703,5.02348627 C20.3121074,5.39323042 20.4595634,6.14684378 20.1071752,6.70727621 L16.1496465,13.0008202 C15.926877,13.3539466 15.5570478,13.547543 15.1812728,13.547543 C14.9616744,13.547543 14.7416795,13.4814876 14.5442788,13.3456378 C14.0107418,12.97714 13.8620966,12.2226957 14.2144847,11.6630942 L18.1716171,5.36955018 C18.3943866,5.01476197 18.763423,4.82282736 19.1407835,4.82282736" id="Fill-5" fill="#007FC8"></path>
                            <path d="M6.64544172,22.3813929 C6.72892456,23.4523262 7.61848935,24.2962963 8.70258491,24.2962963 L22.1299334,24.2962963 C23.214029,24.2962963 24.1043814,23.4523262 24.1870766,22.3813929 L25.0144231,14.2222222 L5.81730769,14.2222222 L6.64544172,22.3813929 Z" id="Fill-7" fill="#FFFFFF"></path>
                            <path d="M16.4162924,23.6272707 C14.7876616,23.9133971 13.131887,23.3882855 11.8755147,22.1847511 C11.5757691,21.8961651 11.552503,21.4075367 11.8239414,21.0906661 C12.0949921,20.7737955 12.557213,20.7508398 12.8573464,21.0365562 C13.7806249,21.9211705 14.9908527,22.3089578 16.1754877,22.1015367 C17.3597349,21.8912461 18.3849967,21.1115722 18.9872023,19.9572285 C19.182638,19.5817389 19.6277971,19.4448245 19.9818304,19.6526556 C20.3362515,19.8592569 20.4649909,20.3314884 20.2687796,20.7057482 C19.4478722,22.275754 18.0441476,23.3411443 16.4162924,23.6272707" id="Fill-9" fill="#007FC8"></path>
                            <path d="M20.9719277,17.7777778 C20.7890381,17.7777778 20.6106458,17.6832119 20.5053344,17.5126834 C20.3550501,17.2692926 20.1114472,17.1456594 19.7801472,17.1456594 L19.7655311,17.1456594 C19.4417266,17.1475972 19.2014966,17.2723931 19.0508376,17.5157839 C18.8851876,17.7808783 18.5426444,17.8572286 18.2862992,17.6851498 C18.0299539,17.5134585 17.9568731,17.1596117 18.1217735,16.8937422 C18.4766842,16.3240218 19.0564592,16.0069936 19.7539131,16.0000175 C20.479475,15.9973045 21.0772391,16.310457 21.4370219,16.8964551 C21.6015475,17.1634874 21.5258432,17.516559 21.2683737,17.6878627 C21.1761794,17.749098 21.0734914,17.7777778 20.9719277,17.7777778" id="Fill-11" fill="#007FC8"></path>
                            <path d="M12.7920086,18.0925262 C12.7805107,18.6395854 12.4581434,18.9606095 11.9360533,18.9629358 C11.3960775,18.9664251 11.0613607,18.6341574 11.057528,18.0708144 C11.051992,17.1116192 11.0507145,17.8575738 11.057528,16.8968277 C11.0613607,16.3443405 11.4118339,15.9950136 11.9381825,16.0000538 C12.4372769,16.0058695 12.7817882,16.3528702 12.7920086,16.8786053 C12.8000997,17.3709974 12.8000997,17.6133163 12.7920086,18.0925262" id="Fill-13" fill="#007FC8"></path>
                            <path d="M25.0910798,13.6230118 C25.7179743,13.5869148 26.1766968,13.0939901 26.1778811,12.4574795 C26.1794602,11.7503791 25.6417837,11.2642727 24.8257945,11.2622673 C22.4504645,11.2582566 8.38007868,11.2582566 6.00632777,11.2622673 C5.18954901,11.2642727 4.6534516,11.7503791 4.65384637,12.4574795 C4.65542545,13.0939901 5.11335844,13.5869148 5.74025291,13.6230118 C5.89855561,13.6318356 24.9351458,13.6318356 25.0910798,13.6230118" id="Fill-15" fill="#FFFFFF"></path>
                            <path d="M15.1420952,13.037037 C14.9181771,13.037037 14.6938548,12.9746188 14.492571,12.8450416 C13.9485389,12.4946302 13.797374,11.7772152 14.1566939,11.2446847 L18.1912617,5.26082751 C18.5505815,4.72790196 19.2829635,4.58054745 19.8298249,4.93095884 C20.3738569,5.28295044 20.5246177,5.99957532 20.1652978,6.53250088 L16.1299217,12.5171482 C15.9023659,12.8537328 15.5260703,13.037037 15.1420952,13.037037" id="Fill-17" fill="#FFFFFF"></path>
                            <path d="M15.125,11.8518519 C15.125,12.179287 15.3860475,12.4444444 15.7067308,12.4444444 C16.0281642,12.4444444 16.2884615,12.179287 16.2884615,11.8518519 C16.2884615,11.5244167 16.0281642,11.2592593 15.7067308,11.2592593 C15.3860475,11.2592593 15.125,11.5244167 15.125,11.8518519" id="Fill-19" fill="#007FC8"></path>
                            <path d="M108.301919,18.1822969 C107.686172,18.1107185 107.080219,18.198433 107.174887,17.3477677 C107.26833,16.5177897 107.572327,16.1685866 108.406788,16.1512092 C109.028655,16.1363143 109.651338,16.143348 110.276878,16.1512092 C110.858348,16.1582429 111.180707,16.4420739 111.077063,17.0577305 C110.786532,18.7756112 110.514363,20.496388 110.14263,22.1935813 C110.06102,22.5626443 109.645218,23.0264555 109.290623,23.1344437 C107.611091,23.6491459 105.87729,23.9106344 104.137367,23.5051616 C102.161184,23.0425917 101.030887,21.464144 101.247561,19.3374806 C101.418942,17.6849721 101.688663,16.0258436 102.106505,14.4246399 C102.836914,11.6272913 104.917557,10.0699448 107.753093,10.0740823 C108.615709,10.0753235 109.481998,10.2317202 110.339718,10.3508795 C110.936694,10.4340428 111.198662,10.7964859 111.084408,11.421245 C110.91874,12.3376962 110.491104,12.7953012 109.8268,12.7295153 C109.08415,12.656282 108.343948,12.5226415 107.602114,12.5036091 C106.29758,12.4713367 105.314998,13.0493423 104.977541,14.3133417 C104.546641,15.9331641 104.247948,17.6092563 104.073711,19.2816246 C103.943136,20.5294878 104.614377,21.1256984 105.852399,21.2167229 C107.683316,21.3499496 107.822869,21.2407202 108.095854,19.4562262 C108.158694,19.0606833 108.22439,18.6663817 108.301919,18.1822969" id="Fill-21" fill="#282828"></path>
                            <path d="M54.3690723,17.3494006 C54.7212268,16.2589913 54.2127813,15.7215928 53.8458372,15.4861729 C53.3273987,15.1509152 52.4831873,15.3588078 52.0223087,15.8280043 C51.8056597,16.0519203 51.5798172,16.3399297 51.5158618,16.6349236 C51.280426,17.7339609 51.043791,18.8416262 50.9482576,19.9583302 C50.9162799,20.3457665 51.2012811,21.0019021 51.502671,21.1259803 C51.9263756,21.299772 52.5483419,21.2077405 52.9924322,21.0088866 C53.3078123,20.8663199 53.5832203,20.3938366 53.6827509,20.0142065 C53.9581589,18.9772083 54.1124513,18.6136016 54.3690723,17.3494006 M56.9132983,17.2959894 C56.7190338,18.0992111 56.5019851,19.5778784 56.0011344,20.9423281 C55.1765093,23.1921704 52.4284255,24.2891534 50.2571395,23.38897 C48.9932208,22.8663623 48.1478102,21.6337972 48.3017029,20.1008969 C48.443604,18.6698888 48.7014242,17.2101207 49.1726956,15.8612836 C49.9497538,13.631984 52.5279561,12.5181559 54.7332184,13.2716641 C56.1426357,13.754008 57.3677814,15.2380164 56.9132983,17.2959894" id="Fill-23" fill="#282828"></path>
                            <path d="M118.359966,17.3494006 C118.712534,16.2589913 118.204868,15.7215928 117.83791,15.4861729 C117.317054,15.1509152 116.47361,15.3588078 116.015113,15.8280043 C115.796057,16.0519203 115.572604,16.3399297 115.509046,16.6349236 C115.270004,17.7339609 115.034159,18.8416262 114.939022,19.9583302 C114.907843,20.3457665 115.192855,21.0019021 115.493457,21.1259803 C115.917577,21.299772 116.540366,21.2077405 116.983274,21.0088866 C117.301864,20.8663199 117.575284,20.3938366 117.675618,20.0142065 C117.949037,18.9772083 118.103335,18.6136016 118.359966,17.3494006 M120.904288,17.2959894 C120.710016,18.0992111 120.494159,19.5778784 119.99249,20.9423281 C119.168233,23.1921704 116.420046,24.2891534 114.249077,23.38897 C112.985511,22.8663623 112.140068,21.6337972 112.291568,20.1008969 C112.434274,18.6698888 112.694103,17.2101207 113.162594,15.8612836 C113.939282,13.631984 116.51878,12.5181559 118.725325,13.2716641 C120.133996,13.754008 121.35679,15.2380164 120.904288,17.2959894" id="Fill-25" fill="#282828"></path>
                            <path d="M45.7343124,10.0740741 C46.5189584,10.1984173 47.3007496,10.3256331 48.082133,10.450797 C48.735053,10.556263 48.9650636,10.9399623 48.8268125,11.5776829 C48.6098522,12.5568343 48.2432219,12.9183734 47.5511511,12.828912 C46.8378737,12.7349364 46.1237806,12.5958198 45.4088719,12.5765322 C44.0373728,12.5383675 43.0851128,13.0919614 42.7315327,14.3936665 C42.3012825,15.9772981 41.9994955,17.613868 41.8359597,19.2496171 C41.6985243,20.597284 42.4782764,21.3023058 43.8318314,21.287122 C44.4990252,21.2809664 45.1613251,21.1196895 45.828111,21.0474638 C46.2860931,20.9973982 46.8060637,20.8279139 47.0111973,21.4824598 C47.2562972,22.2679148 47.0462698,23.0541906 46.43821,23.2302409 C44.6405388,23.7456701 42.8130967,23.9832764 41.0305149,23.1904347 C39.6210885,22.5637942 38.810342,21.0774211 39.0044644,19.3325126 C39.1794193,17.7669373 39.413508,16.1956169 39.7940042,14.6731309 C40.5582592,11.6166684 42.5818627,10.1323471 45.7343124,10.0740741" id="Fill-27" fill="#282828"></path>
                            <path d="M69.6789276,17.6255686 C70.3665165,17.4690213 70.9628745,17.3899193 71.516579,17.1898866 C72.1749424,16.9521665 72.424149,16.3338459 72.1626993,15.8169911 C71.9435081,15.3842081 71.2677674,15.2342871 70.7448681,15.5299877 C70.032793,15.932538 69.8139968,16.6415567 69.6789276,17.6255686 M69.5525471,19.5260866 C69.3878576,20.8803454 69.7713434,21.359927 71.08886,21.3222396 C71.5675262,21.3089869 72.0457974,21.2141474 72.5173546,21.1222069 C72.9430989,21.0414483 73.3941193,20.8240215 73.6587284,21.3851899 C73.9150439,21.9281359 73.7049363,22.9266429 73.2708983,23.1722317 C72.3372624,23.7010967 69.4656605,24.1098592 68.1240526,22.9995327 C67.1122187,22.1600579 66.7923181,21.0252966 66.928967,19.7584227 C67.0466589,18.6559649 67.2243814,17.5448101 67.5126869,16.4804537 C68.1639414,14.0663942 70.21407,12.7320144 72.5631675,13.0964633 C73.8348712,13.2927687 74.8719812,14.3194377 75.0137643,15.5229472 C75.1903021,17.0084904 74.5730123,18.2244243 73.2053384,18.6832986 C72.0497467,19.0709396 70.8266205,19.2419821 69.5525471,19.5260866" id="Fill-29" fill="#282828"></path>
                            <path d="M79.7461214,21.3624835 C80.1212181,21.2997564 80.4951426,21.2275377 80.8714115,21.1780163 C81.3129316,21.1218921 81.7216307,21.0864018 81.8615105,21.7260531 C82.0451516,22.5650281 81.9334041,23.1696018 81.3731034,23.3408633 C80.0247088,23.7564304 78.6516986,23.9054073 77.3138537,23.2954687 C76.1237031,22.7523841 75.4942439,21.5824411 75.6477991,20.0097241 C75.7650168,18.8117189 75.955691,17.6033969 76.2659272,16.4462469 C76.8949957,14.1038848 78.7099167,12.8641992 81.060132,13.0565073 C81.5106388,13.094061 81.9568476,13.188977 82.4026657,13.2574816 C82.8816954,13.330113 83.2298321,13.5525466 83.1833357,14.1302962 C83.1192567,14.9824769 82.6679685,15.5705435 82.0756282,15.5503223 C81.5536187,15.5317518 81.0335627,15.4170272 80.5123346,15.4062975 C79.602725,15.3889651 79.0264046,15.7678037 78.7997837,16.6802355 C78.537216,17.749485 78.3414624,18.8496853 78.2344035,19.9474096 C78.1343777,20.9502179 78.6259107,21.3393736 79.7461214,21.3624835" id="Fill-31" fill="#282828"></path>
                            <path d="M85.6391996,14.8196518 C84.8278923,14.8800428 84.3235661,14.7365634 84.3521129,13.8874408 C84.3922438,12.7331204 85.2999482,13.1291075 85.9705903,12.9775218 C86.0909832,12.3699635 86.1939997,11.7421397 86.3416982,11.1244486 C86.5253904,10.3620621 88.2075809,9.74761348 88.7958925,10.2660038 C89.0006845,10.4451505 89.0453664,10.8901799 89.0217842,11.2038891 C88.9766886,11.785913 88.8298176,12.3610467 88.731352,12.8992972 C89.2232665,13.2494843 90.1545529,12.6123383 90.167792,13.6576305 C90.1789625,14.5205337 90.006027,14.6384786 88.3664498,14.9096304 C87.9498326,17.2004375 87.530733,19.5115101 87.1054276,21.8181243 C86.9105649,22.8743599 85.5543867,23.4851607 84.6723331,22.8581475 C84.4501648,22.700077 84.3488031,22.1983043 84.3976222,21.8850003 C84.6288924,20.3695495 84.9300814,18.8630156 85.2039649,17.3499966 C85.3454575,16.5491058 85.4786758,15.7453778 85.6391996,14.8196518" id="Fill-33" fill="#282828"></path>
                            <path d="M58.7179174,23.1111111 C57.591697,23.1098857 57.4725888,22.9424196 57.6683507,21.7832274 C58.3165662,17.9535635 58.953382,14.1230827 59.5894115,10.2975033 C59.7556912,9.29515741 61.091825,8.55177128 61.9644984,9.04559206 C62.1480743,9.14729709 62.2793684,9.5965964 62.2373071,9.852697 C61.6307598,13.5826982 60.9904062,17.3102486 60.3602731,21.0414751 C60.3123153,21.3114632 60.2777229,21.5826766 60.2230825,21.849397 C59.9994108,22.9465042 59.8028627,23.1111111 58.7179174,23.1111111" id="Fill-35" fill="#282828"></path>
                            <path d="M63.3850972,23.1111111 C62.2261508,23.1111111 62.1227577,22.9636676 62.3319027,21.7244884 C62.9715248,17.9448693 63.6040704,14.1648417 64.2326848,10.3872647 C64.4115589,9.30859886 65.6731121,8.55177649 66.6036501,9.04066822 C66.7876348,9.13746633 66.9326997,9.58796556 66.8922073,9.83833368 C66.3441845,13.2507735 65.7603869,16.6591289 65.1860244,20.072794 C65.0861694,20.6613429 64.9933908,21.2507086 64.8778107,21.8355816 C64.6600168,22.9395702 64.4520512,23.1098858 63.3850972,23.1111111" id="Fill-37" fill="#282828"></path>
                            <path d="M95.5428237,13.8535461 C95.6107095,13.2376667 95.1837235,12.6945322 94.4828803,12.6945322 C93.8850228,12.6945322 93.4063512,13.1109762 93.4063512,13.6720926 C93.4063512,14.2336176 93.7141513,14.5781341 93.9706515,14.9582056 L94.2776802,15.3566677 C94.2776802,15.3566677 95.4055094,14.8674788 95.5428237,13.8535461 M93.3037511,21.4038919 C94.5854804,21.4038919 95.1837235,20.4986678 95.1837235,20.4986678 L93.440294,17.9816134 C93.440294,17.9816134 92.1589505,18.4348385 92.0054361,19.7201341 C91.8681218,20.769622 92.4493935,21.4038919 93.3037511,21.4038919 M92.3807363,16.5516453 L92.3807363,16.497291 L92.0910648,16.1164021 C91.5263788,15.3566677 91.2019929,14.6680435 91.2359357,13.6908918 C91.2868501,12.2237339 92.2954934,10.6666667 94.7393804,10.6666667 C96.4488671,10.6666667 97.6276105,11.7893081 97.6276105,13.5274202 C97.6276105,15.6460125 95.3715665,16.9129176 95.3715665,16.9129176 L96.7045958,18.6334565 C96.9614816,18.2529763 97.2372675,17.740084 97.4069818,17.3056582 C97.5616533,16.9255866 97.6708105,16.6162166 98.1575822,16.695909 C98.6439682,16.7751927 99.2514685,17.2938065 99.2514685,17.2938065 C99.6055544,17.5896901 99.4558972,17.9088685 99.3702686,18.1271031 C98.8410683,19.4119901 97.986325,20.4259229 97.986325,20.462704 L99.148097,21.8554823 C99.3193543,22.0737169 99.4312115,22.1873297 98.9945827,22.6895963 C98.9945827,22.6895963 98.4669253,23.3144666 98.1402251,23.4861118 C97.9516107,23.5841947 97.6615534,23.7215109 97.4227961,23.4321661 L96.5344957,22.3450798 C96.5344957,22.3450798 94.9954949,23.7215109 92.7741651,23.703529 C90.7915927,23.6855472 89.3737062,22.1456444 89.6128492,20.2632686 C89.9376208,17.6550788 92.3807363,16.5516453 92.3807363,16.5516453" id="Fill-39" fill="#0587C7"></path>
                        </g>
                    </g>
                </g>
            </g>
        </g>
    </g>
</svg>